<svg width="13" height="10" viewBox="0 0 13 10" fill="none" xmlns="http://www.w3.org/2000/svg">
<path d="M5.28017 1.29871C5.35386 1.23005 5.41296 1.14725 5.45395 1.05525C5.49494 0.963247 5.51699 0.863934 5.51876 0.763231C5.52054 0.662528 5.50201 0.562499 5.46429 0.46911C5.42657 0.375722 5.37043 0.290888 5.29921 0.21967C5.22799 0.148451 5.14316 0.0923064 5.04977 0.0545854C4.95638 0.0168643 4.85635 -0.00166006 4.75565 0.000116722C4.65495 0.00189351 4.55563 0.023935 4.46363 0.064927C4.37163 0.105919 4.28883 0.165021 4.22017 0.238708L0.22017 4.23871C0.150387 4.30821 0.0950151 4.3908 0.0572324 4.48175C0.0194497 4.5727 0 4.67022 0 4.76871C0 4.8672 0.0194497 4.96471 0.0572324 5.05566C0.0950151 5.14662 0.150387 5.22921 0.22017 5.29871L4.22017 9.29871C4.28883 9.3724 4.37163 9.4315 4.46363 9.47249C4.55563 9.51348 4.65495 9.53552 4.75565 9.5373C4.85635 9.53908 4.95638 9.52055 5.04977 9.48283C5.14316 9.44511 5.22799 9.38896 5.29921 9.31775C5.37043 9.24653 5.42657 9.16169 5.46429 9.06831C5.50201 8.97492 5.52054 8.87489 5.51876 8.77419C5.51699 8.67348 5.49494 8.57417 5.45395 8.48217C5.41296 8.39017 5.35386 8.30737 5.28017 8.23871L2.56017 5.51871H12.2502C12.4491 5.51871 12.6398 5.43969 12.7805 5.29904C12.9212 5.15839 13.0002 4.96762 13.0002 4.76871C13.0002 4.5698 12.9212 4.37903 12.7805 4.23838C12.6398 4.09773 12.4491 4.01871 12.2502 4.01871H2.56017L5.28017 1.29871Z" fill="black"/>
</svg>
